<?xml version="1.0" encoding="UTF-8"?>
<svg width="104px" height="104px" viewBox="0 0 104 104" version="1.1" xmlns="http://www.w3.org/2000/svg" xmlns:xlink="http://www.w3.org/1999/xlink">
    <!-- Generator: Sketch 55.2 (78181) - https://sketchapp.com -->
    <title>Bitmap Copy 56</title>
    <desc>Created with Sketch.</desc>
    <defs>
        <path d="M10.2555408,-4.14336123e-16 L93.3520064,4.14336123e-16 C96.9180813,-2.4074122e-16 98.2112263,0.371302445 99.51493,1.06853082 C100.818634,1.76575919 101.841788,2.78891348 102.539016,4.09261719 C103.236245,5.39632089 103.607547,6.68946584 103.607547,10.2555408 L103.607547,93.3520064 C103.607547,96.9180813 103.236245,98.2112263 102.539016,99.51493 C101.841788,100.818634 100.818634,101.841788 99.51493,102.539016 C98.2112263,103.236245 96.9180813,103.607547 93.3520064,103.607547 L10.2555408,103.607547 C6.68946584,103.607547 5.39632089,103.236245 4.09261719,102.539016 C2.78891348,101.841788 1.76575919,100.818634 1.06853082,99.51493 C0.371302445,98.2112263 1.60494146e-16,96.9180813 -2.76224082e-16,93.3520064 L2.76224082e-16,10.2555408 C-1.60494146e-16,6.68946584 0.371302445,5.39632089 1.06853082,4.09261719 C1.76575919,2.78891348 2.78891348,1.76575919 4.09261719,1.06853082 C5.39632089,0.371302445 6.68946584,2.4074122e-16 10.2555408,-4.14336123e-16 Z" id="path-1"/>
        <polygon id="path-3" points="0 0.831715391 51.8037736 0.831715391 51.8037736 35.0661907 0 35.0661907"/>
        <polygon id="path-5" points="0 48.1975754 51.8037736 48.1975754 51.8037736 3.53171272 0 3.53171272"/>
    </defs>
    <g id="Profile" stroke="none" stroke-width="1" fill="none" fill-rule="evenodd">
        <g id="Merchant-Profile---Desktop----Closed-Restaurant" transform="translate(-919.000000, -711.000000)">
            <g id="Bitmap-Copy-56" transform="translate(919.000000, 711.000000)">
                <g id="Placeholder">
                    <mask id="mask-2" fill="white">
                        <use xlink:href="#path-1"/>
                    </mask>
                    <use id="Rectangle-15" fill="#F7F7FA" xlink:href="#path-1"/>
                    <text id="No-photo" mask="url(#mask-2)" font-family="MaisonNeue-Demi, Maison Neue" font-size="13" font-weight="500" fill="#D1D1D1">
                        <tspan x="24.9754528" y="83.2471698">No photo</tspan>
                    </text>
                    <g id="Page-1" mask="url(#mask-2)">
                        <g transform="translate(25.901887, 18.837736)">
                            <rect id="Rectangle" stroke="none" fill="none" x="0" y="0" width="51.8037736" height="51.8037736"/>
                            <g id="Group-3" stroke="none" stroke-width="1" fill="none" fill-rule="evenodd" transform="translate(0.000000, 13.131385)">
                                <mask id="mask-4" fill="white">
                                    <use xlink:href="#path-3"/>
                                </mask>
                                <g id="Clip-2"/>
                                <path d="M50.5783677,21.745875 C50.5179299,21.8764663 50.4217229,22.0010117 50.2909801,22.1219296 C48.3347709,23.9223971 38.7128367,24.5124765 26.1454879,22.5342597 C25.1168129,22.3758572 24.1128065,22.1944804 23.1112668,22.0106852 C22.5833617,21.9127417 22.0591569,21.8123798 21.5460528,21.7095996 C21.0748852,21.6152836 20.6148183,21.516131 20.1535181,21.4169783 C19.7612895,21.3323357 19.3591935,21.2501116 18.9780658,21.1630507 L19.0520712,20.9986023 L18.765917,20.9320975 C18.7757844,20.894613 18.7782512,20.8571284 18.7881186,20.8196439 C18.830055,20.6491496 18.862124,20.4810737 18.8867925,20.3093703 C18.917628,20.0941365 18.934896,19.8801118 18.9410631,19.6648779 C18.9447633,19.4931745 18.9447633,19.3238894 18.9324291,19.152186 C18.917628,18.9369522 18.885559,18.7253458 18.8448561,18.5125303 C18.8127871,18.3444545 18.7831849,18.1787969 18.7363148,18.0131394 C18.6758771,17.8015331 18.5957046,17.5947635 18.5118318,17.3892031 C18.4476938,17.2295914 18.3872561,17.071189 18.3095504,16.9164141 C18.2059429,16.7096445 18.0776668,16.5137575 17.9506243,16.3166613 C17.8581175,16.1715598 17.7717779,16.0252492 17.6657035,15.8861936 C17.5152259,15.686679 17.3388464,15.5016747 17.1624668,15.3154611 C17.0465251,15.193334 16.9429175,15.065161 16.8183418,14.9478707 C16.606193,14.7507745 16.3656755,14.5742344 16.1239245,14.3952759 C16.0055159,14.308215 15.9019084,14.2114807 15.7760992,14.1280473 C15.3974383,13.8777473 14.9891752,13.6492124 14.5525434,13.4509071 C13.9222642,13.1631225 13.2401811,12.8717104 12.5482307,12.5766707 C12.0918642,12.3807837 11.6428981,12.1788508 11.1865315,11.9793363 C12.070896,11.9442701 13.0206318,11.9345966 14.0184712,11.9466884 C14.1393466,12.4170591 14.2367871,12.7362823 14.2898243,12.7773944 C14.5476097,12.9732814 15.5750512,12.6927519 15.6046534,12.4690537 C15.6071202,12.4376151 15.5775181,12.2550291 15.5269477,11.984173 C16.2694685,12.0083566 17.0280237,12.0410044 17.8211148,12.0893715 C17.8285154,12.1026725 17.8408496,12.1208102 17.8482501,12.1341112 C17.8692183,12.1740141 17.8963536,12.2163353 17.9197887,12.2574474 C17.9802264,12.3638552 18.0468313,12.4726813 18.1245369,12.5875533 C18.1652399,12.6468031 18.2108765,12.7048437 18.2552798,12.7653026 C18.3329854,12.8705012 18.4168582,12.9744906 18.5105984,13.0821075 C18.5710361,13.1510307 18.6364075,13.2175355 18.701779,13.2864587 C18.8004528,13.3880298 18.9065272,13.4871825 19.022469,13.5875443 C19.1026415,13.6588859 19.1865143,13.7265999 19.2740873,13.7943139 C19.3998965,13.8898391 19.535573,13.9805275 19.6761833,14.0700067 C19.7785574,14.1353024 19.8784647,14.1993889 19.9907062,14.2598478 C20.1485844,14.3456995 20.3237305,14.4218778 20.50011,14.4980561 C20.619752,14.5500508 20.7344604,14.6044638 20.8627364,14.6504126 C21.0724183,14.7241726 21.3055353,14.7822132 21.5398857,14.8402537 C21.6644615,14.8704832 21.776703,14.909177 21.9086792,14.9345697 C22.2885736,15.0059113 22.6956032,15.0591151 23.140869,15.078462 C23.4072884,15.0905538 23.671241,15.0953905 23.9314933,15.0953905 C24.152276,15.0953905 24.3594911,15.0687886 24.577807,15.0603243 C24.8627278,15.0494417 25.1476485,15.0397683 25.4251687,15.0131663 C25.7692938,14.9817277 26.0986178,14.9309422 26.4304086,14.8765291 C26.6943612,14.8342079 26.9595472,14.7955141 27.2148658,14.7398919 C27.5441898,14.666132 27.8562458,14.5693977 28.1695353,14.4726633 C28.4014189,14.402531 28.6382361,14.3396536 28.8602523,14.2562203 C29.1797089,14.1365116 29.4781973,13.9889917 29.7766857,13.8438903 C29.9357973,13.7665028 30.1109434,13.7084622 30.2638879,13.6238197 C32.7467687,14.0712159 35.0002329,14.5609334 37.0366146,15.0712069 L39.8438857,15.8329897 C40.8454253,16.1244018 41.7926943,16.4182323 42.6560906,16.713272 C42.6400561,16.7374556 42.6400561,16.7616392 42.6203213,16.7858227 C42.2194588,17.2477291 41.6730523,17.5935543 41.9653736,18.3359902 C42.2564615,19.0796353 43.3418739,18.820871 43.6107601,19.3468638 C43.8771795,19.8728567 42.9693801,20.5669254 43.0705208,20.8196439 C43.1728949,21.0735714 43.4960518,21.3565193 43.9154156,21.4206058 C45.3153509,21.6370489 45.6705768,21.4580904 45.5645024,21.1255661 C45.4596615,20.7930419 45.2031094,20.144922 45.4374598,19.7205002 C45.6730437,19.2948691 46.743655,20.4435892 47.3677671,20.3468549 C47.9918792,20.2501206 48.2768,19.6527861 47.8907385,19.2501295 C47.7254598,19.0760078 47.6526879,18.9309063 47.6403536,18.7954782 C49.6940032,19.8801118 50.7066437,20.8595468 50.6301714,21.5451512 L50.5783677,21.745875 Z M17.7323084,20.1461312 C17.7125736,20.2888143 17.6805046,20.4302882 17.6459687,20.5717622 C17.6398016,20.5983641 17.6287008,20.624966 17.6213003,20.651568 C14.7252226,19.9466166 12.0906307,19.1630686 9.87910296,18.3371994 C10.698096,18.1086646 11.4307493,16.8341899 10.5587191,16.0361318 C10.0036787,15.5270674 8.68638275,17.1618774 8.98487116,17.9756549 C8.69378329,17.8595737 8.39159461,17.7434925 8.11654124,17.624993 C8.03266846,17.3420451 7.94756226,17.0566788 7.86862318,16.7894503 C7.61823827,15.9260965 7.39005499,15.146176 7.12610243,14.4557348 C6.8584496,13.7302274 6.4970566,13.1425664 6.05549111,12.6214103 C6.32807763,11.9793363 6.63890027,11.4315782 6.98919245,10.9938554 C7.05209704,11.0446409 7.12240216,11.0954264 7.19147385,11.1474211 L6.93245499,11.1716047 L8.90593208,12.1848967 C9.16741779,12.3215339 9.43753747,12.4605895 9.71875795,12.59239 C10.4810135,12.9454703 11.2889057,13.2900863 12.0807633,13.6286564 C12.7653132,13.9200685 13.4375288,14.206644 14.0604075,14.490801 C14.4267342,14.6576677 14.7696259,14.848718 15.0890825,15.0566968 C15.1963903,15.1280383 15.288897,15.2114717 15.3912712,15.28765 C15.5898523,15.4327515 15.7909003,15.5778529 15.9660464,15.7398829 C16.0745876,15.8378264 16.1633941,15.9454433 16.2620679,16.0494327 C16.4088453,16.2017893 16.5568561,16.3529367 16.6838987,16.5149666 C16.775172,16.632257 16.8467105,16.7568024 16.926883,16.8777203 C17.0341908,17.037332 17.1414987,17.1981528 17.2290717,17.3650195 C17.29691,17.4944016 17.3474803,17.6298297 17.4029844,17.7628394 C17.4720561,17.9297061 17.5423612,18.0953636 17.5916981,18.267067 C17.6324011,18.4049134 17.658303,18.5463874 17.6854383,18.6866521 C17.7187407,18.8571464 17.7495763,19.0276406 17.7643774,19.2017624 C17.7742447,19.3432363 17.7717779,19.4859194 17.7693111,19.6298117 C17.7656108,19.8015151 17.7569768,19.9744277 17.7323084,20.1461312 L17.7323084,20.1461312 Z M3.36046146,14.3203068 L3.38883019,14.1643227 C3.43693369,13.8632371 3.85013046,13.5367588 4.53714717,13.2453467 C4.60498544,13.3009689 4.67035687,13.3602187 4.73449488,13.423096 C5.1242566,13.8305893 5.41904474,14.3263527 5.66202911,14.9793093 L5.66449596,14.9889828 C5.86554394,15.5161848 6.0443903,16.1002183 6.23187062,16.7350372 C4.10174879,15.6008273 3.34072668,14.7060349 3.36046146,14.3203068 L3.36046146,14.3203068 Z M18.541434,9.46908067 C18.8288216,8.28529444 19.4307321,7.80162285 20.194221,7.1885691 C20.4951763,6.94552412 20.8072323,6.69401489 21.1143547,6.3941385 C21.479448,6.03984906 21.8063051,5.62147313 22.1504302,5.17891362 C23.0014922,4.08823417 23.8032173,3.05680449 25.1069456,3.05680449 L25.1414814,3.05680449 C25.7298243,3.06526874 26.3502361,3.11484508 26.9879159,3.16683978 C28.7467774,3.30710454 30.7412226,3.46792534 32.4803493,2.77143825 C33.4695547,2.38208261 34.2725132,2.33734299 34.6807763,2.65656624 C35.0816388,2.97095278 35.2099148,3.72427129 35.0397024,4.77988455 C34.677076,7.03379419 33.9814253,7.96848955 32.8281747,9.51744783 C32.5716226,9.85964549 32.2978027,10.2296543 32.0054814,10.6407751 C31.4751094,11.36991 30.7325887,12.0228667 29.8580916,12.5295127 C28.110331,13.5476414 25.749559,14.0434048 23.1926728,13.9321603 C22.4254836,13.8983033 21.7841035,13.7640844 21.2487978,13.5706158 C19.640414,12.9902099 18.981766,11.8729285 18.7449488,11.3167062 C18.4809962,10.6976065 18.4057574,10.0240938 18.541434,9.46908067 L18.541434,9.46908067 Z M41.8654663,9.33969852 C42.5574167,9.52953962 43.362842,9.92494115 44.0905617,10.6407751 C43.5392216,11.1135641 42.9891148,11.5984449 42.4599763,12.0748614 C41.9333046,11.727827 41.2672561,11.3880477 40.4692313,11.1425844 C40.8577596,10.6431935 41.3350943,10.0265122 41.8654663,9.33969852 L41.8654663,9.33969852 Z M48.437145,17.9248694 C48.5913229,17.7108447 48.6085908,17.4907741 48.3791741,17.3263258 C48.1349563,17.152204 47.5688151,17.2561934 47.1494512,17.2719127 C46.9841725,17.1945252 46.8287612,17.1159286 46.6573154,17.0397503 C46.6671827,16.611701 47.2148226,15.5669703 46.6906178,14.9055494 C46.0911741,14.1510217 45.2586135,13.9527164 44.8861197,14.5476324 C44.5148593,15.1437577 44.5444615,15.7580206 44.1041294,15.598409 C43.6637973,15.4400065 43.2382663,15.1618954 42.9533456,15.4750727 C42.9212765,15.5113481 42.9188097,15.5572969 42.9003084,15.598409 C42.2909973,15.3928485 41.6619515,15.1921248 41.0156377,14.9950287 C42.351435,13.7253907 45.3128841,10.9648351 47.1383504,9.69519714 C47.690924,9.30825987 48.189227,8.98057236 48.6320259,8.6903694 C50.24411,7.62750107 51.2197477,6.98542703 51.4577984,5.75327364 C51.7340852,4.32765161 50.9335935,1.7206617 49.2684722,1.03989393 C47.6280194,0.376054666 46.7695569,1.38088241 45.4633617,2.90686629 L45.2882156,3.10879918 C44.4309865,4.10999939 42.6560906,6.40985783 41.0908765,8.44006935 C40.0868701,9.74477348 39.2099062,10.8814017 38.8337121,11.3384714 C38.1158598,12.2018252 37.1710577,13.3275708 36.7467601,13.8293801 C35.0656043,13.4170501 33.336345,13.0422046 31.6046189,12.7108895 C32.1263569,12.2840494 32.590124,11.8136787 32.9626178,11.3009868 C33.2512388,10.8922843 33.5225919,10.5295306 33.7729768,10.1933789 C34.9866652,8.56461479 35.7883903,7.48723631 36.1954199,4.95884304 C36.4408712,3.43406833 36.1769186,2.35789903 35.408496,1.75935543 C34.8768906,1.34218868 33.858083,0.99394513 32.0424841,1.70856991 C30.5574426,2.30106762 28.7899472,2.15959368 27.0841229,2.02295645 C26.4193078,1.97096175 25.7705272,1.91775788 25.1575159,1.90929363 L25.1057121,1.90929363 C23.2259752,1.90929363 22.1134275,3.33491566 21.2204291,4.48242652 C20.9009725,4.89233819 20.5987838,5.27927547 20.2879612,5.58036104 C20.010441,5.85484467 19.7255202,6.08096114 19.4529337,6.3022409 C18.6314739,6.96124345 17.7816453,7.64442958 17.4042178,9.20185212 C17.2734749,9.73510005 17.2858092,10.3336437 17.4116183,10.9249322 C16.6900658,10.8850293 15.979614,10.8499631 15.3012313,10.829407 C14.8596658,8.6444206 14.0900097,5.05074064 14.0900097,5.05074064 C14.0900097,5.05074064 12.8627536,5.44372381 12.8060162,5.75085528 C12.7690135,5.95157899 13.3018523,8.79556798 13.7495849,10.8040143 C12.0289596,10.7907133 10.4612787,10.842708 9.07614447,10.9696718 C8.2953876,10.5404133 7.74281402,10.1607311 7.39252183,9.80523243 L7.35551914,9.77016624 C7.28521402,9.70124304 7.22847655,9.62748312 7.15817143,9.53558552 C6.6191655,8.84514431 6.49829003,8.34696257 6.37001402,7.82217889 C6.2466717,7.31069618 6.10482803,6.73149944 5.59419084,6.04468577 L5.59295741,6.04105824 C4.92937574,5.16077593 4.21769057,5.21277063 3.87973261,5.30587741 C3.85383073,5.31313248 3.82546199,5.32038756 3.8044938,5.32643345 C3.80326038,5.32643345 3.80326038,5.32643345 3.80326038,5.32764263 L3.80202695,5.32764263 C3.74282264,5.3469895 3.69471914,5.39535665 3.63798167,5.42316777 C3.51463935,5.48362672 3.38759677,5.53924895 3.28028895,5.63235574 C2.80912129,6.04105824 2.51186631,6.73512698 2.53036765,7.47393534 C2.54023504,8.25143743 2.4156593,8.52713024 2.29231698,8.63958389 C2.23311267,8.69157858 2.17514178,8.71092545 2.12950512,8.72301724 C1.96916011,8.76896604 1.77427925,8.83547088 1.57076442,8.91890423 C1.50909326,8.94308781 1.4523558,8.97573565 1.39191806,9.00354676 C1.2611752,9.06279653 1.13166577,9.12083712 1.00338976,9.19822458 C0.877580593,9.2719845 0.771506199,9.3638821 0.660498113,9.45336135 C0.602527224,9.50172851 0.537155795,9.53921305 0.482885175,9.59241693 C0.339808086,9.73389087 0.22509973,9.89713004 0.138760108,10.0760885 C0.132592992,10.0918079 0.116558491,10.1026905 0.109157951,10.1184098 L0.109157951,10.1208281 C0.107924528,10.1220373 0.106691105,10.1232465 0.106691105,10.1244557 C0.0413196765,10.2756031 -0.00678382749,10.477536 0.00061671159,10.7096983 C0.00185013477,10.7435553 0.010484097,10.7774123 0.0129509434,10.8124785 C0.0289854447,10.9587892 0.0696884097,11.1159825 0.14739407,11.2828492 C0.162195148,11.315497 0.158494879,11.349354 0.176996226,11.3807927 C0.563057682,12.1401571 1.19827062,12.1292745 1.72000863,12.119601 C1.89762156,12.1171827 2.10607008,12.1232286 2.33301995,12.1425754 C2.55256927,12.1619223 2.80788787,12.2127078 3.09280863,12.2973503 C2.38605714,12.7532108 1.94942534,13.2937138 1.84705121,13.9285328 L1.8248496,14.0820985 C1.80264798,14.3698831 1.86555256,14.6576677 1.96792668,14.9454523 C1.88652075,18.1038278 2.75855094,28.0009579 16.221365,32.5607719 C21.1377898,34.2318572 26.0640819,35.0661907 30.6166469,35.0661907 C35.3394243,35.0661907 39.6576388,34.1677707 43.1420593,32.3757675 C47.4615073,30.1520873 50.4106221,26.6116112 51.6748809,22.137649 L51.6736474,22.137649 L51.7834221,21.75313 C51.9906372,20.4593085 50.6758081,19.1546044 48.437145,17.9248694 L48.437145,17.9248694 Z" id="Fill-1" fill="#D1D1D1" mask="url(#mask-4)"/>
                            </g>
                            <path d="M26.8278176,29.8019727 C25.9977238,29.5794838 25.118293,29.9688394 24.2104936,29.3569948 C23.7886629,29.0728378 23.8984375,30.4138173 24.2104936,30.7197396 C24.5225496,31.0256618 24.1537561,31.3315841 24.7211308,31.9156176 C25.2885054,32.4984419 24.7211308,33.3605865 25.0035847,34.0280533 C25.2885054,34.6955201 26.9610273,34.5286534 28.0106704,33.0546642 C29.061547,31.5818842 27.6579114,30.0244616 26.8278176,29.8019727" id="Fill-4" stroke="none" fill="#D1D1D1" fill-rule="evenodd"/>
                            <path d="M34.1379467,28.6619588 C34.1379467,28.6619588 33.6273095,29.2459922 33.7111823,29.7465923 C33.7975219,30.2471924 34.3648966,30.7477925 34.5338756,31.4974835 C34.7053214,32.2483836 34.8187963,31.9448797 35.386171,31.8602372 C35.9535457,31.7768038 38.108336,31.4225144 38.3069171,30.98721 C38.5054982,30.5519055 34.9877753,28.1891698 34.1379467,28.6619588" id="Fill-6" stroke="none" fill="#D1D1D1" fill-rule="evenodd"/>
                            <path d="M25.7882885,22.7629791 C28.5055198,21.4280454 30.1829753,19.8089548 29.8524179,18.9564836 C29.3109451,17.561091 23.8074109,18.6723265 22.1558573,21.4848769 C20.5043036,24.296218 23.0698238,24.0979127 25.7882885,22.7629791" id="Fill-8" stroke="none" fill="#D1D1D1" fill-rule="evenodd"/>
                            <path d="M10.058566,22.7293639 C10.3200518,22.7801494 12.3305315,18.1707591 12.2515925,17.8128421 C12.2515925,17.8128421 11.5473078,17.1477937 11.2081164,17.1731864 C10.8676916,17.1985792 9.64043558,20.1683228 9.50969272,20.5528417 C9.37894987,20.9373606 9.79708032,22.6785784 10.058566,22.7293639" id="Fill-10" stroke="none" fill="#D1D1D1" fill-rule="evenodd"/>
                            <path d="M3.81066092,11.2681608 C3.81066092,11.2681608 2.73758275,11.958602 3.30865768,13.6695903 C3.87849919,15.3793694 6.69687116,17.5171978 7.56890135,17.254806 C8.09803989,17.0951944 7.7366469,16.3660594 8.13997628,15.3140737 C8.54207224,14.2608788 9.31296173,13.5377898 9.21305445,12.3213557 C9.11191375,11.1037125 7.87109003,10.4459191 8.00429973,9.55717254 C8.13997628,8.66963517 8.07213801,8.04448963 7.26671267,7.88004129 C6.46128733,7.71559294 5.99258652,8.66963517 5.55595472,8.57169167 C5.12055633,8.47253899 3.67745121,8.34073848 2.93863073,8.83408351 C2.19981024,9.32742854 1.89885499,10.971912 3.81066092,11.2681608" id="Fill-12" stroke="none" fill="#D1D1D1" fill-rule="evenodd"/>
                            <path d="M29.5113764,14.4641418 C30.014613,14.3915911 30.7188977,12.1679109 30.617757,12.0034626 C30.5166163,11.8390142 28.8403942,11.378317 28.5604071,11.4436127 C28.2816535,11.5101175 27.3639866,12.7604086 27.2961484,13.3516971 C27.2295435,13.9441948 28.851495,14.5584578 29.5113764,14.4641418" id="Fill-14" stroke="none" fill="#D1D1D1" fill-rule="evenodd"/>
                            <path d="M13.2685499,15.0007754 C12.9256582,15.6851707 13.8223569,16.4675096 16.4174792,16.8109164 C19.0113682,17.153114 20.3594997,16.2825052 20.3594997,15.6416403 C20.3594997,14.9983571 18.8127871,14.6090014 17.8655181,14.8048884 C16.9170156,15.0007754 16.268235,15.1930349 15.5195472,14.7541029 C14.7708593,14.3163801 13.6126749,14.3163801 13.2685499,15.0007754" id="Fill-16" stroke="none" fill="#D1D1D1" fill-rule="evenodd"/>
                            <path d="M15.7703021,20.4019362 C16.7286719,20.9799237 18.203846,19.1722011 17.0974654,18.1601183 C16.4597857,17.5760849 14.8119323,19.8227394 15.7703021,20.4019362" id="Fill-18" stroke="none" fill="#D1D1D1" fill-rule="evenodd"/>
                            <path d="M14.1587114,12.8965622 C14.5756084,12.1637997 12.0088548,11.1553444 11.6721302,12.1843557 C11.3366391,13.2145762 13.4359254,14.1649909 14.1587114,12.8965622" id="Fill-20" stroke="none" fill="#D1D1D1" fill-rule="evenodd"/>
                            <path d="M15.8774866,10.846641 C15.6345022,11.5902861 17.1516127,12.2783089 17.6733507,11.3605421 C17.974306,10.8309217 16.1204709,10.1029959 15.8774866,10.846641" id="Fill-22" stroke="none" fill="#D1D1D1" fill-rule="evenodd"/>
                            <path d="M21.649537,14.3218214 C22.3846573,14.6241162 23.2159845,13.2021217 22.3291532,12.6120423 C21.8172826,12.272263 20.9144168,14.0195267 21.649537,14.3218214" id="Fill-24" stroke="none" fill="#D1D1D1" fill-rule="evenodd"/>
                            <path d="M30.2353958,34.3611821 C30.970516,34.6634768 31.8018432,33.2414823 30.915012,32.651403 C30.4031413,32.3116237 29.5002756,34.0588873 30.2353958,34.3611821" id="Fill-26" stroke="none" fill="#D1D1D1" fill-rule="evenodd"/>
                            <path d="M40.3062961,19.7690519 C40.6183521,19.243059 40.6183521,17.4268722 39.6131122,16.7267575 C39.111109,16.3760956 38.2748481,17.2962808 38.4302594,17.7992993 C38.5869042,18.3023178 39.1000082,18.9153715 38.7435489,19.9443828 C38.3858562,20.972185 39.99424,20.2938356 40.3062961,19.7690519" id="Fill-28" stroke="none" fill="#D1D1D1" fill-rule="evenodd"/>
                            <path d="M34.3198767,8.98680281 C34.9131532,8.98680281 35.3954217,8.58414621 35.3954217,8.08838283 C35.3954217,7.59141026 34.9131532,7.18996284 34.3198767,7.18996284 C33.7278335,7.18996284 33.2455651,7.59141026 33.2455651,8.08838283 C33.2455651,8.58414621 33.7278335,8.98680281 34.3198767,8.98680281" id="Fill-30" stroke="none" fill="#D1D1D1" fill-rule="evenodd"/>
                            <path d="M30.6279944,5.32976188 C31.2212709,5.32976188 31.702306,4.92710527 31.702306,4.43134189 C31.702306,3.93436932 31.2212709,3.53171272 30.6279944,3.53171272 C30.0347178,3.53171272 29.5536828,3.93436932 29.5536828,4.43134189 C29.5536828,4.92710527 30.0347178,5.32976188 30.6279944,5.32976188" id="Fill-32" stroke="none" fill="#D1D1D1" fill-rule="evenodd"/>
                            <path d="M14.6344427,6.20061259 C14.9020955,6.24414303 17.3134378,5.43520228 19.077233,5.17160126 C19.077233,5.17160126 19.3448858,5.1063056 19.3670874,4.75685287 C19.3892891,4.40619096 19.2338777,3.9031725 18.9871931,3.9031725 C18.7417419,3.9031725 16.0627467,4.25262523 14.4555963,5.17160126 C14.4555963,5.17160126 14.3667899,6.15708214 14.6344427,6.20061259" id="Fill-34" stroke="none" fill="#D1D1D1" fill-rule="evenodd"/>
                            <mask id="mask-6" fill="white">
                                <use xlink:href="#path-5"/>
                            </mask>
                            <g id="Clip-37" stroke="none" fill="none"/>
                            <polygon id="Fill-36" stroke="none" fill="#D1D1D1" fill-rule="evenodd" mask="url(#mask-6)" points="11.728621 7.01052067 12.9595774 7.01052067 12.9595774 5.19433383 11.728621 5.19433383"/>
                            <path d="M22.1229249,9.94556084 C22.8037744,10.3784469 23.5277939,9.54411341 24.0593992,9.81617868 C24.5922381,10.0870348 24.2727815,11.1716683 24.5071319,11.317979 C24.7414823,11.4642896 25.1731804,11.5078201 25.5493744,11.317979 C26.8136332,10.6855784 26.9912461,10.3373348 26.7075588,10.1281469 C26.4226381,9.92016808 25.8268947,9.54411341 25.7627567,9.06406935 C25.6986187,8.58402529 27.2527319,8.89720265 27.6992311,8.45947986 C28.1469637,8.02054788 28.0186877,7.3748463 27.4648806,7.26964773 C26.9123071,7.16565834 26.7630629,6.93591433 26.9974133,6.41475818 C27.2317637,5.89239286 27.162692,5.43411402 26.7075588,5.43411402 C26.2524257,5.43411402 25.5715761,6.39299296 25.2521195,6.28900357 C24.9326629,6.18501418 24.825355,4.71223417 23.8904203,4.44742397 C22.9530187,4.18140459 22.1586941,4.50183702 22.2154316,5.19711494 C22.2721691,5.89239286 22.6643976,6.37243692 22.2129647,6.49698236 C21.7615319,6.62273697 21.2496612,6.64450219 21.2077249,7.06045977 C21.1657885,7.47762652 21.7713992,7.70737053 21.7232957,8.3131692 C21.6764257,8.91775869 21.4408418,9.51267476 22.1229249,9.94556084" id="Fill-38" stroke="none" fill="#D1D1D1" fill-rule="evenodd" mask="url(#mask-6)"/>
                            <path d="M37.5743871,12.2027353 C37.591655,12.1930618 39.349283,11.3417998 40.6727461,12.9802373 C40.7381175,13.0636707 40.7257833,13.1833794 40.6394437,13.2498843 C40.6049078,13.2764862 40.561738,13.2897872 40.5198016,13.2897872 C40.4618307,13.2897872 40.4050933,13.2656036 40.3680906,13.2184456 C39.2419752,11.8266806 37.8112043,12.5147034 37.752,12.5437237 C37.6533261,12.5896725 37.5386178,12.5546063 37.4892809,12.4602904 C37.4411774,12.3659744 37.4781801,12.2511024 37.5743871,12.2027353 M36.6369854,13.0358596 C37.1377553,13.1096195 37.9925175,12.9947475 38.1392949,13.4276336 C38.2860722,13.8605197 37.6089229,14.9753827 37.6681272,15.1978716 C37.7273315,15.4191514 38.3452765,15.6210843 38.3452765,15.6210843 C39.2580097,15.7649766 39.6995752,15.592064 39.5824,15.0152856 C39.4639914,14.437298 39.1778372,13.8895399 39.6009013,13.6005462 C40.0227321,13.3115524 40.4322286,14.0914728 41.1106113,14.1773245 C41.7902275,14.2643854 42.1738221,12.9367069 41.6126146,11.7239004 C41.0538739,10.512303 38.6980356,10.1652687 37.3745725,10.9451891 C36.049876,11.7239004 36.1374491,12.9633088 36.6369854,13.0358596" id="Fill-39" stroke="none" fill="#D1D1D1" fill-rule="evenodd" mask="url(#mask-6)"/>
                        </g>
                    </g>
                </g>
            </g>
        </g>
    </g>
</svg>